<svg class="svg-icon" style="width: 1em; height: 1em;vertical-align: middle;fill: currentColor;overflow: hidden;" viewBox="0 0 1024 1024" version="1.1" xmlns="http://www.w3.org/2000/svg"><path d="M566.04672 631.25504c0.8192-14.72512 17.44896-9.60512 17.44896-9.60512l130.37568 26.89024L983.04 752.4352c0-51.2-7.9872-56.5248-19.7632-65.49504l-384-279.47008s-10.28096-128-10.28096-240.8448C568.99584 114.31936 544.1536 0 512 0s-56.99584 116.06016-56.99584 166.6048c0 107.1104-10.30144 240.8448-10.30144 240.8448L60.7232 686.96064c-14.92992 10.6496-19.7632 16.42496-19.7632 65.49504l269.16864-103.89504 130.17088-26.89024s16.5888-5.12 17.44896 9.60512c0.83968 14.72512-2.51904 147.41504 12.41088 217.8048 1.88416 9.40032-5.26336 10.0352-10.09664 15.79008l-109.1584 69.98016c-3.56352 4.05504-5.24288 15.5648-5.24288 15.5648l-2.10944 39.46496 143.01184-34.11968L511.7952 1024l25.23136-68.25984 142.99136 34.11968-2.10944-39.46496c0.2048 0-1.47456-11.50976-5.03808-15.5648l-109.1584-69.98016c-4.8128-5.75488-11.96032-6.38976-10.07616-15.7696 14.52032-70.41024 11.5712-203.10016 12.41088-217.82528z"  /></svg>