<?xml version="1.0" encoding="iso-8859-1"?>
<!-- Uploaded to: SVG Repo, www.svgrepo.com, Generator: SVG Repo Mixer Tools -->
<svg fill="#000000" height="800px" width="800px" version="1.1" id="Layer_1" xmlns="http://www.w3.org/2000/svg" xmlns:xlink="http://www.w3.org/1999/xlink" 
	 viewBox="0 0 512 512" xml:space="preserve">
<g transform="translate(1 1)">
	<g>
		<g>
			<path d="M212.333,348.867h8.533c5.12,0,8.533-3.413,8.533-8.533c0-5.12-3.413-8.533-8.533-8.533h-8.533
				c-5.12,0-8.533,3.413-8.533,8.533C203.8,345.453,207.213,348.867,212.333,348.867z"/>
			<path d="M255,417.133h8.533c5.12,0,8.533-3.413,8.533-8.533s-3.413-8.533-8.533-8.533H255c-5.12,0-8.533,3.413-8.533,8.533
				S249.88,417.133,255,417.133z"/>
			<path d="M374.467,58.733c-18.773,0-34.133,15.36-34.133,34.133c0,18.773,15.36,34.133,34.133,34.133S408.6,111.64,408.6,92.867
				C408.6,74.093,393.24,58.733,374.467,58.733z M374.467,109.933c-9.387,0-17.067-7.68-17.067-17.067
				c0-9.387,7.68-17.067,17.067-17.067s17.067,7.68,17.067,17.067C391.533,102.253,383.853,109.933,374.467,109.933z"/>
			<path d="M468.333,92.867c0-14.507-10.24-26.453-23.04-30.72c3.413-10.24,2.56-22.187-7.68-32.427
				c-9.387-9.387-18.773-10.24-25.6-9.387c-1.707,0-4.267,0.853-6.827,1.707C401.773,9.24,388.973-1,374.467-1
				s-27.307,10.24-30.72,23.04c-2.56-0.853-4.267-1.707-6.827-1.707c-6.827-0.853-16.213,0-25.6,9.387
				c-8.533,9.387-11.947,21.333-7.68,32.427c-13.653,3.413-23.04,16.213-23.04,30.72c0,15.36,9.387,27.307,23.893,31.573
				c-4.267,11.093-1.707,22.187,7.68,31.573c6.827,6.827,15.36,10.24,24.747,9.387c1.707,0,4.267-0.853,6.827-1.707
				c2.332,9.327,8.65,16.657,17.314,20.37c-4.404,9.43-6.73,19.662-8.725,33.468c-1.12-0.557-2.156-1.06-3.103-1.509
				c-10.772-48.19-43.438-52.25-69.486-47.209c-5.12,0.853-7.68,5.973-6.827,10.24c5.12,26.453,18.773,38.4,29.867,44.373
				c7.68,4.267,17.92,6.827,27.307,6.827c2.201,0,4.766-0.007,7.906-0.465c1.932,0.72,6.35,2.488,12.07,5.502
				c-0.102,0.867-0.206,1.751-0.31,2.643H194.319c-0.485-3.353-0.981-6.559-1.491-9.635c1.306-9.348,9.913-19.648,14.895-24.943
				c8.111-2.614,23.192-7.044,34.477-18.329c9.387-8.533,18.773-24.747,12.8-51.2c-0.853-5.12-5.973-7.68-10.24-6.827
				c-21.333,5.12-36.693,14.507-44.373,28.16c-6.278,10.201-8.213,23.293-5.832,37.939c-1.989,2.267-4.627,5.368-7.315,9.06
				c-3.281-11.763-7.319-21.281-12.698-30.131c3.773-6.245,4.711-13.073,2.805-19.428c10.24-3.413,17.92-13.653,17.92-25.6
				s-7.68-22.187-17.92-25.6c0-0.853,0.853-2.56,0.853-4.267c0-5.12-0.853-13.653-8.533-21.333
				c-7.68-8.533-15.36-9.387-21.333-8.533c-1.707,0-2.56,0.853-4.267,0.853c-3.413-10.24-13.653-17.92-25.6-17.92
				s-21.333,7.68-25.6,17.92c-1.707,0-2.56-0.853-4.267-0.853c-5.12-0.853-13.653,0-21.333,8.533
				c-8.533,7.68-9.387,16.213-8.533,21.333c0,1.707,0.853,3.413,0.853,4.267c-10.24,3.413-17.92,13.653-17.92,25.6
				s7.68,22.187,18.773,25.6c-2.56,8.533-0.853,17.92,6.827,25.6c5.973,5.973,12.8,9.387,21.333,8.533
				c0.853,0,2.56-0.853,4.267-0.853c3.413,10.24,13.653,17.92,25.6,17.92s22.187-7.68,25.6-18.773
				c1.707,0.853,2.56,0.853,4.267,0.853c4.376,0.486,8.751-0.14,12.811-1.87c6.341,12.111,11.042,26.518,15.58,53.923H75.8
				c-5.12,0-8.533,3.413-8.533,8.533v42.667c0,5.12,3.413,8.533,8.533,8.533h26.738L129.56,459.8h-19.627
				c-2.56,0-5.12,0.853-6.827,2.56c-1.707,2.56-2.56,5.12-1.707,7.68l8.533,34.133c0.853,4.267,4.267,6.827,8.533,6.827h273.067
				c4.267,0,7.68-2.56,8.533-5.973l8.533-34.133c0.853-2.56,0-5.973-1.707-7.68c-1.707-2.56-4.267-3.413-6.827-3.413H380.44
				l8.065-48.392c0.298-0.862,0.468-1.8,0.468-2.807l18.489-110.934H434.2c5.12,0,8.533-3.413,8.533-8.533v-42.667
				c0-5.12-3.413-8.533-8.533-8.533h-67.223c2.757-25.725,5.477-38.855,12.558-51.598c12.337-1.908,22.643-10.707,25.652-23.495
				c2.56,0.853,5.12,1.707,7.68,1.707c8.533,0.853,17.92-2.56,24.747-9.387c9.387-8.533,11.947-20.48,7.68-31.573
				C458.093,120.173,468.333,107.373,468.333,92.867z M310.467,208.92c-8.533-5.12-15.36-12.8-18.773-23.893
				c19.627-0.853,31.573,7.68,38.4,28.16C324.12,213.187,317.293,212.333,310.467,208.92z M215.747,163.693
				c4.267-7.68,11.947-12.8,23.893-17.067c0.853,10.24-2.56,19.627-9.387,26.453c-5.12,5.12-12.8,8.533-18.773,11.093
				C210.627,176.493,212.333,169.667,215.747,163.693z M150.04,169.667c-2.56,0-5.12-1.707-7.68-4.267s-6.827-3.413-10.24-1.707
				c-3.413,1.707-5.12,6.827-4.267,10.24c0.853,0.853,0.853,2.56,0.853,3.413c0,5.12-4.267,9.387-10.24,9.387
				c-5.12,0-10.24-4.267-10.24-9.387c0-0.853,0.853-2.56,0.853-3.413c0.853-4.267-0.853-8.533-4.267-10.24
				c-1.707-0.853-2.56-0.853-4.267-0.853s-4.267,0.853-5.973,2.56c-1.707,2.56-5.12,4.267-7.68,4.267
				c-3.413,0-5.12-0.853-7.68-3.413c-4.267-4.267-3.413-10.24,1.707-15.36c2.56-2.56,3.413-6.827,1.707-10.24
				s-6.827-5.12-10.24-4.267c-0.853,0.853-2.56,0.853-3.413,0.853c-5.973,0-10.24-4.267-10.24-10.24c0-5.12,4.267-10.24,9.387-9.387
				c1.707,0,2.56,0.853,3.413,0.853c5.973,0.853,9.387-2.56,10.24-4.267c1.707-3.413,0.853-7.68-1.707-10.24
				S75.8,97.987,75.8,95.427c0-1.707,0-4.267,3.413-7.68c5.973-6.827,11.947-1.707,15.36,0.853c2.56,2.56,6.827,3.413,10.24,1.707
				c3.413-1.707,5.12-5.973,4.267-9.387c-0.853-0.853-0.853-2.56-0.853-3.413c0-5.973,5.12-10.24,10.24-10.24
				c5.973,0,10.24,4.267,11.093,10.24c0,0.853-0.853,2.56-0.853,3.413c-0.853,3.413,0.853,7.68,4.267,9.387
				c2.56,1.707,6.827,0.853,9.387-0.853c8.533-8.533,13.653-3.413,15.36-1.707c2.56,2.56,3.413,5.12,3.413,7.68
				s-1.707,5.12-4.267,7.68s-3.413,6.827-1.707,10.24c1.707,2.56,4.267,5.12,10.24,4.267c0.853-0.853,2.56-0.853,3.413-0.853
				c5.12,0,9.387,4.267,9.387,10.24s-4.267,10.24-9.387,10.24c-1.707,0-2.56-0.853-3.413-0.853
				c-4.267-0.853-8.533,0.853-10.24,4.267s-0.853,7.68,1.707,10.24c2.367,3.156,6.186,8.5,2.029,14.009
				c-0.928,0.65-1.668,1.43-2.223,2.299C154.462,169.024,152.251,169.667,150.04,169.667z M384.707,493.933H125.293l-4.267-17.067
				H139.8h230.4h18.773L384.707,493.933z M372.58,400.067h-74.914c-5.12,0-8.533,3.413-8.533,8.533s3.413,8.533,8.533,8.533h72.039
				L362.52,459.8H146.627l-18.1-110.933H178.2c5.12,0,8.533-3.413,8.533-8.533c0-5.12-3.413-8.533-8.533-8.533h-52.458
				l-5.569-34.133h269.653L372.58,400.067z M425.667,280.6h-25.6H109.933h-25.6V255h272.213h0.853h68.267V280.6z M435.053,108.227
				c-1.707,0-3.413-0.853-4.267-0.853c-5.973-0.853-9.387,2.56-10.24,4.267c-1.707,3.413-0.853,7.68,1.707,10.24
				c5.12,5.12,10.24,13.653,1.707,22.187c-3.413,3.413-6.827,4.267-11.093,4.267c-3.413-0.853-7.68-2.56-11.093-5.973
				c-2.56-2.56-6.827-3.413-10.24-1.707c-1.707,0.853-5.12,4.267-4.267,10.24c0,0.853,0.853,2.56,0.853,4.267
				c0,8.533-6.827,14.507-14.507,14.507c-7.68,0-14.507-6.827-14.507-14.507c0-1.707,0.853-3.413,0.853-4.267
				c0.853-5.973-2.56-9.387-4.267-10.24c-1.707-0.853-2.56-0.853-4.267-0.853c-1.707,0-4.267,0.853-5.12,1.707
				c-3.413,3.413-7.68,5.973-11.093,5.973c-4.267,0.853-7.68-0.853-11.093-4.267c-10.24-9.387-1.707-19.627,0.853-22.187
				s3.413-6.827,1.707-10.24c-0.853-1.707-4.267-5.12-10.24-4.267c-0.853,0-2.56,0.853-4.267,0.853
				c-8.533,0-14.507-5.973-14.507-14.507c0-7.68,5.973-14.507,13.653-14.507c1.707,0,3.413,0.853,4.267,0.853
				c5.973,0.853,9.387-2.56,10.24-4.267c1.707-3.413,0.853-7.68-1.707-10.24c-3.413-4.267-10.24-13.653-0.853-23.04
				c4.267-3.413,7.68-4.267,12.8-4.267c3.413,0,7.68,2.56,11.093,5.973c2.56,2.56,6.827,3.413,10.24,1.707
				c2.56-1.707,5.12-4.267,4.267-10.24c-0.853-0.853-0.853-3.413-0.853-4.267c0-7.68,6.827-14.507,14.507-14.507
				c7.68,0,14.507,5.973,14.507,14.507c0,1.707-0.853,3.413-0.853,4.267c-0.853,5.973,2.56,9.387,4.267,10.24
				c3.413,1.707,7.68,0.853,10.24-1.707c3.413-3.413,7.68-5.12,11.093-5.973c4.267-0.853,7.68,0.853,11.093,4.267
				c9.387,9.387,1.707,19.627-3.413,23.893c-2.56,2.56-3.413,6.827-1.707,10.24c0.853,2.56,4.267,5.12,10.24,4.267
				c0.853,0,3.413-0.853,4.267-0.853c7.68,0,14.507,5.973,14.507,14.507C449.56,101.4,443.587,108.227,435.053,108.227z"/>
			<path d="M118.467,97.133C102.253,97.133,88.6,110.787,88.6,127s13.653,29.867,29.867,29.867
				c16.213,0,29.867-13.653,29.867-29.867S134.68,97.133,118.467,97.133z M118.467,139.8c-6.827,0-12.8-5.973-12.8-12.8
				s5.973-12.8,12.8-12.8s12.8,5.973,12.8,12.8S125.293,139.8,118.467,139.8z"/>
		</g>
	</g>
</g>
</svg>