<?xml version="1.0" encoding="iso-8859-1"?>
<!-- Uploaded to: SVG Repo, www.svgrepo.com, Generator: SVG Repo Mixer Tools -->
<!DOCTYPE svg PUBLIC "-//W3C//DTD SVG 1.1//EN" "http://www.w3.org/Graphics/SVG/1.1/DTD/svg11.dtd">
<svg fill="#000000" version="1.1" id="Capa_1" xmlns="http://www.w3.org/2000/svg" xmlns:xlink="http://www.w3.org/1999/xlink" 
	 width="800px" height="800px" viewBox="0 0 446.035 446.035"
	 xml:space="preserve">
<g>
	<g id="Layer_3_13_">
		<g>
			<path d="M284.117,260.092v-78.94h-28.544v94.424l6.729,4.189c22.031,13.719,35.184,37.365,35.184,63.256
				c0,41.062-33.406,74.469-74.469,74.469s-74.469-33.406-74.469-74.469c0-25.891,13.152-49.539,35.184-63.256l6.729-4.189V61.101
				c0-17.951,14.604-32.556,32.557-32.556c17.953,0,32.557,14.604,32.557,32.556v34.415h28.544V61.101
				C284.119,27.41,256.71,0,223.018,0s-61.102,27.41-61.102,61.101v198.991c-26.388,19.395-41.912,49.834-41.912,82.93
				c0,56.803,46.212,103.014,103.014,103.014c56.802,0,103.013-46.211,103.013-103.014
				C326.029,309.926,310.506,279.486,284.117,260.092z"/>
			<rect x="255.573" y="124.061" width="28.544" height="28.545"/>
			<path d="M208.744,71.728v230.65c-18.232,5.994-31.4,23.146-31.4,43.384c0,25.225,20.448,45.674,45.673,45.674
				s45.672-20.449,45.672-45.674c0-20.238-13.168-37.39-31.399-43.384V71.728H208.744z"/>
		</g>
	</g>
</g>
</svg>