<?xml version="1.0" encoding="iso-8859-1"?>
<!-- Uploaded to: SVG Repo, www.svgrepo.com, Generator: SVG Repo Mixer Tools -->
<!DOCTYPE svg PUBLIC "-//W3C//DTD SVG 1.1//EN" "http://www.w3.org/Graphics/SVG/1.1/DTD/svg11.dtd">
<svg fill="#000000" height="800px" width="800px" version="1.1" id="Capa_1" xmlns="http://www.w3.org/2000/svg" xmlns:xlink="http://www.w3.org/1999/xlink" 
	 viewBox="0 0 313.131 313.131" xml:space="preserve">
<path d="M248.114,235.631l-14.25,21.7l-11.803-7.749c-1.111-5.053-4.007-9.432-7.988-12.469V161.19l99.059-30.618l-35.671-24.205
	l-2.078-9.227c-5.819-25.838-20.436-49.129-41.158-65.583c-20.532-16.302-46.218-25.28-72.327-25.28
	c-5.401,0-10.869,0.382-16.25,1.135l-39.236,5.493C42.089,21.911-4.501,79.701,0.346,144.47l2.742,36.638l0.05,0.433
	c5.631,36.289,36.372,62.791,73.094,63.014l44.05,0.268c27.568,0,51.933-15.087,64.791-37.824v32.888
	c-3.408,3.806-5.5,8.813-5.5,14.311c0,11.855,9.645,21.5,21.5,21.5c2.238,0,4.396-0.346,6.426-0.983l48.942,32.139l15.917-24.245
	l-14.249-9.36l14.25-21.701L248.114,235.631z M201.073,232.697c-1.724,0-3.392,0.226-5,0.611v-60.504
	c1.57-3.128,3.994-5.766,7-7.601v67.596C202.413,232.737,201.748,232.697,201.073,232.697z M14.041,180.065l-2.725-36.416
	C6.9,84.647,49.342,32.003,107.937,23.799l39.236-5.493c4.877-0.683,9.832-1.029,14.725-1.029c23.635,0,46.892,8.131,65.486,22.895
	c18.762,14.897,31.997,35.987,37.267,59.385l1.484,6.59l-57.465,20.415c-6.041,2.145-12.657,0.124-16.467-5.03
	c-6.262-8.473-17.279-12.233-27.416-9.361l-71.688,20.321c-26.587,7.536-43.756,33.858-39.937,61.228l5.184,37.154
	C35.491,224.046,17.95,204.733,14.041,180.065z M120.282,233.822l-43.983-0.268c-2.203-0.013-4.378-0.15-6.525-0.38L64.057,192.2
	c-3.064-21.959,10.711-43.078,32.042-49.125l71.688-20.321c5.756-1.632,12.014,0.505,15.57,5.316
	c6.708,9.076,18.359,12.636,28.995,8.857l59.437-21.115l16.225,11.01l-83.965,25.953c-11.252,3.478-19.407,13.284-20.774,24.982
	C179.539,209.719,152.457,233.822,120.282,233.822z M190.573,254.197c0-5.79,4.71-10.5,10.5-10.5s10.5,4.71,10.5,10.5
	s-4.71,10.5-10.5,10.5S190.573,259.987,190.573,254.197z M253.283,291.62l-35.831-23.529c1.511-1.779,2.73-3.806,3.603-6.01
	l15.966,10.482l14.25-21.7l5.855,3.843l-14.25,21.699l14.25,9.36L253.283,291.62z"/>
</svg>